REM DIRINDEX 1\2,1\4,1\3\5,1\3\6,1\3\7
REM DIRNAME folder01,folder02,folder03,folder04,folder05,folder06,folder07
TITLE ""
FILE "CD1Track15.mp3" MP3
  TRACK 01 AUDIO
    TITLE "0:"
    INDEX 01 00:00:00
  TRACK 02 AUDIO
    TITLE "5:cjc082_0223"
    INDEX 01 00:00:31
  TRACK 03 AUDIO
    TITLE "0:"
    INDEX 01 00:01:36
  TRACK 04 AUDIO
    TITLE "6:cjc082_0224"
    INDEX 01 00:02:10
  TRACK 05 AUDIO
    TITLE "0:"
    INDEX 01 00:03:37
  TRACK 06 AUDIO
    TITLE "5:cjc082_0225"
    INDEX 01 00:04:07
  TRACK 07 AUDIO
    TITLE "0:"
    INDEX 01 00:05:34
  TRACK 08 AUDIO
    TITLE "6:cjc082_0226"
    INDEX 01 00:06:10
  TRACK 09 AUDIO
    TITLE "0:"
    INDEX 01 00:07:49
  TRACK 10 AUDIO
    TITLE "5:cjc082_0227"
    INDEX 01 00:08:23
  TRACK 11 AUDIO
    TITLE "0:"
    INDEX 01 00:09:45
  TRACK 12 AUDIO
    TITLE "6:cjc082_0228"
    INDEX 01 00:10:21
  TRACK 13 AUDIO
    TITLE "0:"
    INDEX 01 00:11:11
  TRACK 14 AUDIO
    TITLE "5:cjc082_0229"
    INDEX 01 00:11:64
  TRACK 15 AUDIO
    TITLE "0:"
    INDEX 01 00:13:04
  TRACK 16 AUDIO
    TITLE "6:cjc082_0230"
    INDEX 01 00:13:51
  TRACK 17 AUDIO
    TITLE "0:"
    INDEX 01 00:14:64
  TRACK 18 AUDIO
    TITLE "5:cjc082_0231"
    INDEX 01 00:15:34
  TRACK 19 AUDIO
    TITLE "0:"
    INDEX 01 00:16:73
  TRACK 20 AUDIO
    TITLE "6:cjc082_0232"
    INDEX 01 00:17:49
  TRACK 21 AUDIO
    TITLE "0:"
    INDEX 01 00:18:62
  TRACK 22 AUDIO
    TITLE "5:cjc082_0233"
    INDEX 01 00:19:36
  TRACK 23 AUDIO
    TITLE "0:"
    INDEX 01 00:20:53
  TRACK 24 AUDIO
    TITLE "6:cjc082_0234"
    INDEX 01 00:21:23
  TRACK 25 AUDIO
    TITLE "0:"
    INDEX 01 00:23:10
  TRACK 26 AUDIO
    TITLE "5:cjc082_0235"
    INDEX 01 00:23:55
  TRACK 27 AUDIO
    TITLE "0:"
    INDEX 01 00:24:74
  TRACK 28 AUDIO
    TITLE "6:cjc082_0236"
    INDEX 01 00:25:45
  TRACK 29 AUDIO
    TITLE "0:"
    INDEX 01 00:27:34
  TRACK 30 AUDIO
    TITLE "5:cjc082_0237"
    INDEX 01 00:28:04
  TRACK 31 AUDIO
    TITLE "0:"
    INDEX 01 00:29:21
  TRACK 32 AUDIO
    TITLE "6:cjc082_0238"
    INDEX 01 00:29:62
  TRACK 33 AUDIO
    TITLE "0:"
    INDEX 01 00:31:06
  TRACK 34 AUDIO
    TITLE "5:cjc082_0239"
    INDEX 01 00:31:51
  TRACK 35 AUDIO
    TITLE "0:"
    INDEX 01 00:33:07
  TRACK 36 AUDIO
    TITLE "6:cjc082_0240"
    INDEX 01 00:33:52
  TRACK 37 AUDIO
    TITLE "0:"
    INDEX 01 00:34:73
  TRACK 38 AUDIO
    TITLE "5:cjc082_0241"
    INDEX 01 00:35:47
  TRACK 39 AUDIO
    TITLE "0:"
    INDEX 01 00:37:01
  TRACK 40 AUDIO
    TITLE "6:cjc082_0242"
    INDEX 01 00:37:52
  TRACK 41 AUDIO
    TITLE "0:"
    INDEX 01 00:39:23
  TRACK 42 AUDIO
    TITLE "5:cjc082_0243"
    INDEX 01 00:39:70
  TRACK 43 AUDIO
    TITLE "0:"
    INDEX 01 00:41:10
  TRACK 44 AUDIO
    TITLE "6:cjc082_0244"
    INDEX 01 00:41:61
  TRACK 45 AUDIO
    TITLE "0:"
    INDEX 01 00:43:11
  TRACK 46 AUDIO
    TITLE "5:cjc082_0245"
    INDEX 01 00:43:58
  TRACK 47 AUDIO
    TITLE "0:"
    INDEX 01 00:45:02
  TRACK 48 AUDIO
    TITLE "6:cjc082_0246"
    INDEX 01 00:45:47
  TRACK 49 AUDIO
    TITLE "0:"
    INDEX 01 00:47:03
  TRACK 50 AUDIO
    TITLE "5:cjc082_0247"
    INDEX 01 00:47:52
  TRACK 51 AUDIO
    TITLE "0:"
    INDEX 01 00:49:16
  TRACK 52 AUDIO
    TITLE "6:cjc082_0248"
    INDEX 01 00:49:65
  TRACK 53 AUDIO
    TITLE "0:"
    INDEX 01 00:51:46
  TRACK 54 AUDIO
    TITLE "5:cjc082_0249"
    INDEX 01 00:52:22
  TRACK 55 AUDIO
    TITLE "0:"
    INDEX 01 00:53:37
  TRACK 56 AUDIO
    TITLE "6:cjc082_0250"
    INDEX 01 00:54:11
  TRACK 57 AUDIO
    TITLE "0:"
    INDEX 01 00:55:36
  TRACK 58 AUDIO
    TITLE "7:cjc082_0251"
    INDEX 01 00:57:03
  TRACK 59 AUDIO
    TITLE "0:"
    INDEX 01 01:08:19
